<svg xmlns="http://www.w3.org/2000/svg" width="31.545" height="31.545" viewBox="0 0 31.545 31.545">
  <g id="Group_235" data-name="Group 235" transform="translate(-1512.917 -118)">
    <g id="Group_231" data-name="Group 231" transform="translate(1512.917 118)">
      <g id="Group_31" data-name="Group 31">
        <path id="Path_56" data-name="Path 56" d="M10.892,0H3.648A3.652,3.652,0,0,0,0,3.648v7.245A3.652,3.652,0,0,0,3.648,14.54h7.245a3.652,3.652,0,0,0,3.648-3.648V3.648A3.652,3.652,0,0,0,10.892,0Zm1.183,10.892a1.185,1.185,0,0,1-1.183,1.183H3.648a1.185,1.185,0,0,1-1.183-1.183V3.648A1.185,1.185,0,0,1,3.648,2.464h7.245a1.185,1.185,0,0,1,1.183,1.183Z"/>
      </g>
    </g>
    <g id="Group_232" data-name="Group 232" transform="translate(1529.922 118)">
      <g id="Group_33" data-name="Group 33">
        <path id="Path_57" data-name="Path 57" d="M286.844,0H279.7A3.7,3.7,0,0,0,276,3.7v7.147a3.7,3.7,0,0,0,3.7,3.7h7.147a3.7,3.7,0,0,0,3.7-3.7V3.7A3.7,3.7,0,0,0,286.844,0Zm1.232,10.844a1.234,1.234,0,0,1-1.232,1.232H279.7a1.234,1.234,0,0,1-1.232-1.232V3.7A1.234,1.234,0,0,1,279.7,2.464h7.147A1.234,1.234,0,0,1,288.076,3.7Z" transform="translate(-276)"/>
      </g>
    </g>
    <g id="Group_233" data-name="Group 233" transform="translate(1512.917 135.005)">
      <g id="Group_35" data-name="Group 35">
        <path id="Path_58" data-name="Path 58" d="M10.892,276H3.648A3.652,3.652,0,0,0,0,279.648v7.245a3.652,3.652,0,0,0,3.648,3.648h7.245a3.652,3.652,0,0,0,3.648-3.648v-7.245A3.652,3.652,0,0,0,10.892,276Zm1.183,10.892a1.185,1.185,0,0,1-1.183,1.183H3.648a1.185,1.185,0,0,1-1.183-1.183v-7.245a1.185,1.185,0,0,1,1.183-1.183h7.245a1.185,1.185,0,0,1,1.183,1.183Z" transform="translate(0 -276)"/>
      </g>
    </g>
    <g id="Group_234" data-name="Group 234" transform="translate(1529.922 135.005)">
      <g id="Group_37" data-name="Group 37">
        <path id="Path_59" data-name="Path 59" d="M286.844,276H279.7a3.7,3.7,0,0,0-3.7,3.7v7.147a3.7,3.7,0,0,0,3.7,3.7h7.147a3.7,3.7,0,0,0,3.7-3.7V279.7A3.7,3.7,0,0,0,286.844,276Zm1.232,10.844a1.234,1.234,0,0,1-1.232,1.232H279.7a1.234,1.234,0,0,1-1.232-1.232V279.7a1.234,1.234,0,0,1,1.232-1.232h7.147a1.234,1.234,0,0,1,1.232,1.232Z" transform="translate(-276 -276)"/>
      </g>
    </g>
  </g>
</svg>
