<svg xmlns="http://www.w3.org/2000/svg" width="33.481" height="22.321" viewBox="0 0 33.481 22.321">
  <g id="left" transform="translate(0 0)">
    <g id="Group_4" data-name="Group 4">
      <path id="Path_50" data-name="Path 50" d="M.7,95.1h28.31l-7.18-7.18a.7.7,0,0,1-.2-.493v-1.4a.7.7,0,0,1,1.191-.493L33.278,96a.7.7,0,0,1,0,.986L22.815,107.449a.7.7,0,0,1-1.191-.493v-1.4a.7.7,0,0,1,.2-.493l7.18-7.18H.7a.7.7,0,0,1-.7-.7V95.8A.7.7,0,0,1,.7,95.1Z" transform="translate(-0.001 -85.333)" fill="#fff"/>
    </g>
  </g>
</svg>
