<svg xmlns="http://www.w3.org/2000/svg" width="123" height="157" viewBox="0 0 123 157">
  <g id="Group_125" data-name="Group 125" transform="translate(-885)">
    <rect id="Rectangle_634" data-name="Rectangle 634" width="123" height="157" transform="translate(885)"/>
    <g id="Layer_2" data-name="Layer 2" transform="translate(899.853 27.468)">
      <g id="Layer_1" data-name="Layer 1">
        <path id="Path_86" data-name="Path 86" d="M58.794,39.453h.8V73.036h2.534V39.453h.8V73.036h2.534V36.913h-6.66v-.8h6.66V0H62.92V33.582h-.8V0H59.59V33.582h-.8V0H56.26V73.036h2.534Z" transform="translate(-20.436)" fill="#fff"/>
        <rect id="Rectangle_626" data-name="Rectangle 626" width="2.534" height="9.596" transform="translate(45.821 63.44)" fill="#fff"/>
        <rect id="Rectangle_627" data-name="Rectangle 627" width="22.528" height="6.087" transform="translate(35.824 76.958)" fill="#fff"/>
        <rect id="Rectangle_628" data-name="Rectangle 628" width="2.534" height="73.036" transform="translate(49.151)" fill="#fff"/>
        <rect id="Rectangle_629" data-name="Rectangle 629" width="2.534" height="73.036" transform="translate(52.481)" fill="#fff"/>
        <rect id="Rectangle_630" data-name="Rectangle 630" width="2.534" height="73.036" transform="translate(55.811)" fill="#fff"/>
        <path id="Path_87" data-name="Path 87" d="M0,153.985v-12.1H1.955v10.334H9.494v1.77Z" transform="translate(0 -51.538)" fill="#fff"/>
        <path id="Path_88" data-name="Path 88" d="M40.355,153.985l-6.329-8.934v8.934H32.16v-12.1h1.955L40.54,151V141.88H42.4v12.1Z" transform="translate(-11.682 -51.538)" fill="#fff"/>
        <path id="Path_89" data-name="Path 89" d="M56.392,154.166a5.483,5.483,0,0,1-4.279-1.77,6.329,6.329,0,0,1-1.675-4.457,6.559,6.559,0,0,1,1.675-4.559,5.763,5.763,0,0,1,8.564.28l-1.121,1.382a3.954,3.954,0,0,0-3.184-1.49,3.547,3.547,0,0,0-2.789,1.21,4.61,4.61,0,0,0-1.21,3.184,4.362,4.362,0,0,0,1.114,3.184,3.477,3.477,0,0,0,2.7,1.216,4.158,4.158,0,0,0,3.26-1.49l1.114,1.274a5.355,5.355,0,0,1-4.19,2.05" transform="translate(-18.321 -51.439)" fill="#fff"/>
        <path id="Path_90" data-name="Path 90" d="M104.9,153.985V143.561H101.46V141.88h8.653v1.681h-3.349v10.424Z" transform="translate(-36.855 -51.538)" fill="#fff"/>
        <path id="Path_91" data-name="Path 91" d="M22.109,153.985l-3.814-7.819-3.725,7.819H12.43l5.864-12.1,5.954,12.1Z" transform="translate(-4.515 -51.538)" fill="#fff"/>
        <path id="Path_92" data-name="Path 92" d="M76.434,153.985l-3.814-7.819-3.814,7.819H66.66l5.96-12.1,5.96,12.1Z" transform="translate(-24.214 -51.538)" fill="#fff"/>
        <rect id="Rectangle_631" data-name="Rectangle 631" width="8.66" height="1.859" transform="translate(74.468 90.349)" fill="#fff"/>
        <rect id="Rectangle_632" data-name="Rectangle 632" width="8.66" height="1.859" transform="translate(74.468 95.468)" fill="#fff"/>
        <rect id="Rectangle_633" data-name="Rectangle 633" width="8.66" height="1.859" transform="translate(74.468 100.588)" fill="#fff"/>
        <path id="Path_93" data-name="Path 93" d="M133.927,148.124v-4.655H137a2.069,2.069,0,0,1,2.05,2.05v.465a2.108,2.108,0,0,1-2.146,2.139Zm4.457,1.586a3.731,3.731,0,0,0,2.611-3.54v-.745a3.534,3.534,0,0,0-3.54-3.534h-5.3v12.1h1.859v-4.094h2.139l2.611,4.094h2.324Z" transform="translate(-48.003 -51.541)" fill="#fff"/>
        <path id="Path_94" data-name="Path 94" d="M94.784,149a3.018,3.018,0,0,0-1.866-1.675,18.113,18.113,0,0,0-2.044-.637,6.372,6.372,0,0,1-.745-.274h-.1a7.373,7.373,0,0,1-1.49-.637,1.1,1.1,0,0,1-.369-1.273,1.776,1.776,0,0,1,1.274-1.121,2.547,2.547,0,0,1,.841-.1,4.457,4.457,0,0,1,2.324.637,4.743,4.743,0,0,1,.841.637l1.114-1.394a5.54,5.54,0,0,0-3.254-1.586,3.686,3.686,0,0,0-.936-.089,4.725,4.725,0,0,0-2.044.369,3.273,3.273,0,0,0-2.139,3.076,2.878,2.878,0,0,0,.745,2.139,4.788,4.788,0,0,0,1.789,1.1,23.686,23.686,0,0,1,3.821,1.305,1.025,1.025,0,0,1,.554.93,1.057,1.057,0,0,1-.274,1.025,1.853,1.853,0,0,1-1.21.745,4.457,4.457,0,0,1-1.121.1,5.266,5.266,0,0,1-3.184-1.121c-.1-.1-.369-.28-.465-.369l-1.114,1.395-.1.1h0a5.635,5.635,0,0,0,3.445,1.764,6.4,6.4,0,0,0,1.274.1,8.674,8.674,0,0,0,1.681-.185,3.477,3.477,0,0,0,2.7-2.8,2.846,2.846,0,0,0,0-2.139" transform="translate(-31.108 -51.397)" fill="#fff"/>
        <path id="Path_95" data-name="Path 95" d="M21.5,167.56h.6v3.821h2.26v.529H21.5Z" transform="translate(-7.81 -60.866)" fill="#fff"/>
        <path id="Path_96" data-name="Path 96" d="M33.822,171.591a1.611,1.611,0,0,1-.465-1.274V167.56h.637v2.789a1.1,1.1,0,0,0,.306.847,1.477,1.477,0,0,0,1.764,0,1.127,1.127,0,0,0,.312-.847V167.56h.637v2.757a1.611,1.611,0,0,1-.465,1.274A1.967,1.967,0,0,1,35.21,172,1.91,1.91,0,0,1,33.822,171.591Z" transform="translate(-12.115 -60.866)" fill="#fff"/>
        <path id="Path_97" data-name="Path 97" d="M46.88,167.56h.9l1.044,2.98c.038.108.076.236.115.376l.083.28h0l.076-.293c.045-.146.076-.267.115-.363l1.051-2.98h.891v4.368h-.637v-3.7h-.045l-.038.178a.675.675,0,0,1-.07.242l-1.184,3.279h-.5l-1.082-3.279a1.827,1.827,0,0,1-.07-.236.865.865,0,0,0-.038-.185h-.038v3.7H46.88Z" transform="translate(-17.029 -60.866)" fill="#fff"/>
        <path id="Path_98" data-name="Path 98" d="M61.64,167.56h.637v4.368H61.64Z" transform="translate(-22.391 -60.866)" fill="#fff"/>
        <path id="Path_99" data-name="Path 99" d="M70.59,167.56h.541l2.305,3.044.153.2h0v-3.241h.567v4.368H73.64l-2.318-3.082-.166-.223h0v3.3H70.59Z" transform="translate(-25.642 -60.866)" fill="#fff"/>
        <path id="Path_100" data-name="Path 100" d="M85.062,167.56h.77l1.694,4.368h-.637l-.439-1.165H84.393l-.427,1.165H83.33Zm1.184,2.674-.509-1.363-.293-.79h-.032l-.287.777-.509,1.375Z" transform="translate(-30.269 -60.866)" fill="#fff"/>
        <path id="Path_101" data-name="Path 101" d="M97.21,167.56h.637v4.368H97.21Z" transform="translate(-35.311 -60.866)" fill="#fff"/>
        <path id="Path_102" data-name="Path 102" d="M119.673,167.56h3.388v.529H120.3v1.344h2.477v.529H120.3V171.4h2.757v.529h-3.4Z" transform="translate(-43.466 -60.866)" fill="#fff"/>
        <path id="Path_103" data-name="Path 103" d="M108.987,170.035a1.178,1.178,0,0,0,.586-.465,1.337,1.337,0,0,0,.217-.77,1.216,1.216,0,0,0-.35-.9,1.414,1.414,0,0,0-1.006-.337H106.16v.529H108.4a.834.834,0,0,1,.579.185.726.726,0,0,1,.2.535.726.726,0,0,1-.777.79H106.16v2.331h.637v-1.8h1.6l.949,1.8h.675Z" transform="translate(-38.562 -60.864)" fill="#fff"/>
      </g>
    </g>
  </g>
</svg>
