<svg id="menu" xmlns="http://www.w3.org/2000/svg" width="31.545" height="31.545" viewBox="0 0 31.545 31.545">
  <defs>
    <style>
      .cls-1 {
        fill: #000;
      }
    </style>
  </defs>
  <g id="Group_32" data-name="Group 32">
    <g id="Group_31" data-name="Group 31">
      <path id="Path_56" data-name="Path 56" class="cls-1" d="M10.892,0H3.648A3.652,3.652,0,0,0,0,3.648v7.245A3.652,3.652,0,0,0,3.648,14.54h7.245a3.652,3.652,0,0,0,3.648-3.648V3.648A3.652,3.652,0,0,0,10.892,0Zm1.183,10.892a1.185,1.185,0,0,1-1.183,1.183H3.648a1.185,1.185,0,0,1-1.183-1.183V3.648A1.185,1.185,0,0,1,3.648,2.464h7.245a1.185,1.185,0,0,1,1.183,1.183Z"/>
    </g>
  </g>
  <g id="Group_34" data-name="Group 34" transform="translate(17.005)">
    <g id="Group_33" data-name="Group 33">
      <path id="Path_57" data-name="Path 57" class="cls-1" d="M286.844,0H279.7A3.7,3.7,0,0,0,276,3.7v7.147a3.7,3.7,0,0,0,3.7,3.7h7.147a3.7,3.7,0,0,0,3.7-3.7V3.7A3.7,3.7,0,0,0,286.844,0Zm1.232,10.844a1.234,1.234,0,0,1-1.232,1.232H279.7a1.234,1.234,0,0,1-1.232-1.232V3.7A1.234,1.234,0,0,1,279.7,2.464h7.147A1.234,1.234,0,0,1,288.076,3.7Z" transform="translate(-276)"/>
    </g>
  </g>
  <g id="Group_36" data-name="Group 36" transform="translate(0 17.005)">
    <g id="Group_35" data-name="Group 35">
      <path id="Path_58" data-name="Path 58" class="cls-1" d="M10.892,276H3.648A3.652,3.652,0,0,0,0,279.648v7.245a3.652,3.652,0,0,0,3.648,3.648h7.245a3.652,3.652,0,0,0,3.648-3.648v-7.245A3.652,3.652,0,0,0,10.892,276Zm1.183,10.892a1.185,1.185,0,0,1-1.183,1.183H3.648a1.185,1.185,0,0,1-1.183-1.183v-7.245a1.185,1.185,0,0,1,1.183-1.183h7.245a1.185,1.185,0,0,1,1.183,1.183Z" transform="translate(0 -276)"/>
    </g>
  </g>
  <g id="Group_38" data-name="Group 38" transform="translate(17.005 17.005)">
    <g id="Group_37" data-name="Group 37">
      <path id="Path_59" data-name="Path 59" class="cls-1" d="M286.844,276H279.7a3.7,3.7,0,0,0-3.7,3.7v7.147a3.7,3.7,0,0,0,3.7,3.7h7.147a3.7,3.7,0,0,0,3.7-3.7V279.7A3.7,3.7,0,0,0,286.844,276Zm1.232,10.844a1.234,1.234,0,0,1-1.232,1.232H279.7a1.234,1.234,0,0,1-1.232-1.232V279.7a1.234,1.234,0,0,1,1.232-1.232h7.147a1.234,1.234,0,0,1,1.232,1.232Z" transform="translate(-276 -276)"/>
    </g>
  </g>
</svg>
