<svg xmlns="http://www.w3.org/2000/svg" width="31.939" height="32.006" viewBox="0 0 31.939 32.006">
  <g id="phone_1_" data-name="phone (1)" transform="translate(-0.539)">
    <g id="Group_212" data-name="Group 212" transform="translate(0.539 0)">
      <path id="Path_129" data-name="Path 129" d="M31.64,23.489l-4.467-4.467a2.971,2.971,0,0,0-4.945,1.117,3.04,3.04,0,0,1-3.509,1.914c-3.19-.8-7.5-4.945-8.295-8.295a2.891,2.891,0,0,1,1.914-3.509A2.971,2.971,0,0,0,13.455,5.3L8.989.837a3.186,3.186,0,0,0-4.307,0L1.651,3.868C-1.38,7.059,1.97,15.513,9.467,23.01s15.952,11.007,19.142,7.816L31.64,27.8A3.186,3.186,0,0,0,31.64,23.489Z" transform="translate(-0.539 0)" fill="#012e50"/>
    </g>
  </g>
</svg>
