<svg xmlns="http://www.w3.org/2000/svg" width="28.924" height="34.669" viewBox="0 0 28.924 34.669">
  <g id="user.2" transform="translate(0 0)">
    <path id="Path_127" data-name="Path 127" d="M95.382,16.7a8.079,8.079,0,0,0,5.9-2.446,8.079,8.079,0,0,0,2.446-5.9,8.081,8.081,0,0,0-2.446-5.9,8.348,8.348,0,0,0-11.808,0,8.08,8.08,0,0,0-2.446,5.9,8.079,8.079,0,0,0,2.447,5.9A8.081,8.081,0,0,0,95.382,16.7Zm0,0" transform="translate(-81.139 0)" fill="#012e50"/>
    <path id="Path_128" data-name="Path 128" d="M28.854,257.228a20.627,20.627,0,0,0-.281-2.191,17.261,17.261,0,0,0-.539-2.2,10.877,10.877,0,0,0-.905-2.054A7.751,7.751,0,0,0,25.764,249,6.019,6.019,0,0,0,23.8,247.77a6.778,6.778,0,0,0-2.5-.453,2.541,2.541,0,0,0-1.357.576c-.407.265-.883.572-1.414.911a8.1,8.1,0,0,1-1.829.806,7.1,7.1,0,0,1-4.475,0A8.083,8.083,0,0,1,10.4,248.8c-.526-.336-1-.643-1.415-.912a2.538,2.538,0,0,0-1.357-.576,6.77,6.77,0,0,0-2.5.454A6.015,6.015,0,0,0,3.159,249a7.753,7.753,0,0,0-1.365,1.779,10.9,10.9,0,0,0-.905,2.054,17.3,17.3,0,0,0-.539,2.2,20.553,20.553,0,0,0-.281,2.191c-.046.663-.069,1.352-.069,2.047a5.757,5.757,0,0,0,1.71,4.355,6.155,6.155,0,0,0,4.406,1.607H22.808a6.153,6.153,0,0,0,4.406-1.607,5.754,5.754,0,0,0,1.71-4.355c0-.7-.024-1.388-.07-2.048Zm0,0" transform="translate(0 -230.57)" fill="#012e50"/>
  </g>
</svg>
