<svg xmlns="http://www.w3.org/2000/svg" width="17.959" height="17.863" viewBox="0 0 17.959 17.863">
    <g>
        <path d="M17.444 29.138a.471.471 0 0 0-.471.471v4.18a1.414 1.414 0 0 1-1.412 1.411H2.354a1.414 1.414 0 0 1-1.413-1.412V21.522a1.414 1.414 0 0 1 1.412-1.412h4.18a.471.471 0 1 0 0-.941H2.354A2.356 2.356 0 0 0 0 21.522v12.266a2.356 2.356 0 0 0 2.354 2.354h13.207a2.356 2.356 0 0 0 2.354-2.354v-4.18a.471.471 0 0 0-.471-.47zm0 0" transform="translate(0 -18.278)"/>
        <path d="M156.367 39.2l6.873-6.873 2.217 2.217-6.873 6.873zm0 0" transform="translate(-149.007 -30.819)"/>
        <path d="M132.543 199.668l2.45-.678-1.771-1.771zm0 0" transform="translate(-126.304 -187.948)"/>
        <path d="M318.69.613a1.178 1.178 0 0 0-1.664 0l-.5.5 2.217 2.217.5-.5a1.178 1.178 0 0 0 0-1.664zm0 0" transform="translate(-301.628 -.269)"/>
    </g>
</svg>
