<svg id="Icon_ionic-ios-mail" data-name="Icon ionic-ios-mail" xmlns="http://www.w3.org/2000/svg" width="31.59" height="21.87" viewBox="0 0 31.59 21.87">
  <path id="Path_1" data-name="Path 1" d="M34.707,10.36l-8.171,8.323a.147.147,0,0,0,0,.213l5.718,6.09a.985.985,0,0,1,0,1.4.99.99,0,0,1-1.4,0l-5.7-6.067a.156.156,0,0,0-.22,0l-1.39,1.412a6.114,6.114,0,0,1-4.359,1.838,6.237,6.237,0,0,1-4.45-1.891l-1.337-1.359a.156.156,0,0,0-.22,0l-5.7,6.067a.99.99,0,0,1-1.4,0,.985.985,0,0,1,0-1.4l5.718-6.09a.162.162,0,0,0,0-.213L3.633,10.36a.15.15,0,0,0-.258.106V27.12a2.437,2.437,0,0,0,2.43,2.43h26.73a2.437,2.437,0,0,0,2.43-2.43V10.467A.152.152,0,0,0,34.707,10.36Z" transform="translate(-3.375 -7.68)" fill="#012e50"/>
  <path id="Path_2" data-name="Path 2" d="M19.1,21.779a4.128,4.128,0,0,0,2.969-1.245L33.986,8.407a2.387,2.387,0,0,0-1.5-.532H5.729a2.371,2.371,0,0,0-1.5.532L16.14,20.534A4.129,4.129,0,0,0,19.1,21.779Z" transform="translate(-3.307 -7.875)" fill="#012e50"/>
</svg>
