<svg xmlns="http://www.w3.org/2000/svg" id="menu" width="22.49" height="16.243" viewBox="0 0 22.49 16.243">
    <defs>
        <style>
            .cls-1{fill:#fff}
        </style>
    </defs>
    <path id="Path_104" d="M21.553 124.542H.937a.937.937 0 0 1 0-1.874h20.616a.937.937 0 0 1 0 1.874zm0 0" class="cls-1" transform="translate(0 -115.484)"/>
    <path id="Path_105" d="M21.553 1.874H.937A.937.937 0 0 1 .937 0h20.616a.937.937 0 0 1 0 1.874zm0 0" class="cls-1"/>
    <path id="Path_106" d="M21.553 247.206H.937a.937.937 0 0 1 0-1.874h20.616a.937.937 0 0 1 0 1.874zm0 0" class="cls-1" transform="translate(0 -230.963)"/>
</svg>